<svg width="240" height="27" viewBox="0 0 240 27" fill="none" xmlns="http://www.w3.org/2000/svg">
<path d="M15.876 19.44H5.076L3.24 25.704H0L7.632 0.504H13.32L20.952 25.704H17.712L15.876 19.44ZM10.26 1.8L5.904 16.632H15.048L10.692 1.8H10.26Z" fill="white"/>
<path d="M24.131 0.504H32.411C35.531 0.504 37.811 1.248 39.251 2.736C40.691 4.224 41.411 6.6 41.411 9.864V16.344C41.411 19.608 40.691 21.984 39.251 23.472C37.811 24.96 35.531 25.704 32.411 25.704H24.131V22.86H26.291V3.312H24.131V0.504ZM31.979 22.896C33.083 22.896 34.031 22.788 34.823 22.572C35.639 22.356 36.311 21.996 36.839 21.492C37.367 20.964 37.751 20.268 37.991 19.404C38.255 18.54 38.387 17.448 38.387 16.128V10.08C38.387 8.76 38.255 7.668 37.991 6.804C37.751 5.94 37.367 5.256 36.839 4.752C36.311 4.224 35.639 3.852 34.823 3.636C34.031 3.42 33.083 3.312 31.979 3.312H29.315V22.896H31.979Z" fill="white"/>
<path d="M52.0419 2.52C52.0419 1.824 52.2819 1.236 52.7619 0.756001C53.2659 0.252 53.8659 0 54.5619 0C55.2579 0 55.8459 0.252 56.3259 0.756001C56.8299 1.236 57.0819 1.824 57.0819 2.52V6.048C57.0819 6.864 56.8179 7.536 56.2899 8.064C55.7859 8.592 55.1259 8.856 54.3099 8.856H52.4739V6.912H54.1659C54.8139 6.912 55.1379 6.552 55.1379 5.832V4.932C54.9459 5.004 54.7419 5.04 54.5259 5.04C53.8539 5.04 53.2659 4.8 52.7619 4.32C52.2819 3.816 52.0419 3.216 52.0419 2.52Z" fill="white"/>
<path d="M82.5449 7.776C82.5449 6.96 82.3769 6.24 82.0409 5.616C81.7289 4.992 81.2969 4.476 80.7449 4.068C80.1929 3.66 79.5569 3.348 78.8369 3.132C78.1169 2.916 77.3609 2.808 76.5689 2.808C75.8729 2.808 75.2129 2.904 74.5889 3.096C73.9649 3.264 73.4009 3.516 72.8969 3.852C72.4169 4.188 72.0329 4.608 71.7449 5.112C71.4569 5.592 71.3129 6.156 71.3129 6.804V7.02C71.3129 7.716 71.4569 8.316 71.7449 8.82C72.0329 9.3 72.4529 9.72 73.0049 10.08C73.5809 10.416 74.2889 10.704 75.1289 10.944C75.9689 11.16 76.9529 11.352 78.0809 11.52C80.7209 11.928 82.6649 12.708 83.9129 13.86C85.1609 14.988 85.7849 16.512 85.7849 18.432V18.864C85.7849 19.944 85.5929 20.94 85.2089 21.852C84.8489 22.74 84.2969 23.508 83.5529 24.156C82.8329 24.804 81.9329 25.308 80.8529 25.668C79.7729 26.028 78.5249 26.208 77.1089 26.208C75.5009 26.208 74.0729 25.98 72.8249 25.524C71.6009 25.044 70.5689 24.396 69.7289 23.58C68.9129 22.74 68.2889 21.768 67.8569 20.664C67.4249 19.536 67.2089 18.312 67.2089 16.992V15.912H70.2329V16.776C70.2329 18.984 70.8329 20.64 72.0329 21.744C73.2569 22.848 74.9489 23.4 77.1089 23.4C78.9809 23.4 80.3849 22.992 81.3209 22.176C82.2809 21.336 82.7609 20.232 82.7609 18.864V18.648C82.7609 17.328 82.2689 16.32 81.2849 15.624C80.3249 14.928 78.7529 14.424 76.5689 14.112C75.2969 13.944 74.1449 13.692 73.1129 13.356C72.1049 12.996 71.2409 12.54 70.5209 11.988C69.8009 11.412 69.2489 10.728 68.8649 9.936C68.4809 9.144 68.2889 8.208 68.2889 7.128V6.696C68.2889 5.712 68.4929 4.812 68.9009 3.996C69.3089 3.18 69.8729 2.472 70.5929 1.872C71.3369 1.272 72.2129 0.816 73.2209 0.504C74.2529 0.168 75.3809 0 76.6049 0C78.0209 0 79.2809 0.204 80.3849 0.612001C81.5129 1.02 82.4609 1.572 83.2289 2.268C83.9969 2.94 84.5729 3.744 84.9569 4.68C85.3649 5.592 85.5689 6.552 85.5689 7.56V9.072H82.5449V7.776Z" fill="white"/>
<path d="M111.727 22.896H113.887V3.312H111.727V0.504H121.915C123.115 0.504 124.171 0.672 125.083 1.008C126.019 1.344 126.799 1.8 127.423 2.376C128.071 2.952 128.551 3.648 128.863 4.464C129.199 5.256 129.367 6.12 129.367 7.056V7.488C129.367 8.184 129.259 8.82 129.043 9.396C128.827 9.972 128.527 10.488 128.143 10.944C127.759 11.4 127.303 11.796 126.775 12.132C126.271 12.444 125.719 12.684 125.119 12.852V13.284C126.319 13.62 127.327 14.268 128.143 15.228C128.959 16.164 129.367 17.316 129.367 18.684V19.116C129.367 20.052 129.199 20.928 128.863 21.744C128.551 22.536 128.071 23.232 127.423 23.832C126.799 24.408 126.019 24.864 125.083 25.2C124.171 25.536 123.115 25.704 121.915 25.704H111.727V22.896ZM116.911 22.896H121.699C123.115 22.896 124.267 22.548 125.155 21.852C126.043 21.132 126.487 20.148 126.487 18.9V18.684C126.487 17.388 126.067 16.368 125.227 15.624C124.387 14.856 123.247 14.472 121.807 14.472H116.911V22.896ZM116.911 11.664H121.807C123.247 11.664 124.387 11.292 125.227 10.548C126.067 9.804 126.487 8.784 126.487 7.488V7.272C126.487 6.048 126.043 5.088 125.155 4.392C124.267 3.672 123.115 3.312 121.699 3.312H116.911V11.664Z" fill="white"/>
<path d="M141.222 16.848H140.574L132.69 0.504H136.074L142.518 14.256H142.95L149.394 0.504H152.778L144.894 16.848H144.246V25.704H141.222V16.848Z" fill="white"/>
<path d="M178.432 0.504H186.712C189.832 0.504 192.112 1.248 193.552 2.736C194.992 4.224 195.712 6.6 195.712 9.864V16.344C195.712 19.608 194.992 21.984 193.552 23.472C192.112 24.96 189.832 25.704 186.712 25.704H178.432V22.86H180.592V3.312H178.432V0.504ZM186.28 22.896C187.384 22.896 188.332 22.788 189.124 22.572C189.94 22.356 190.612 21.996 191.14 21.492C191.668 20.964 192.052 20.268 192.292 19.404C192.556 18.54 192.688 17.448 192.688 16.128V10.08C192.688 8.76 192.556 7.668 192.292 6.804C192.052 5.94 191.668 5.256 191.14 4.752C190.612 4.224 189.94 3.852 189.124 3.636C188.332 3.42 187.384 3.312 186.28 3.312H183.616V22.896H186.28Z" fill="white"/>
<path d="M214.263 19.44H203.463L201.627 25.704H198.387L206.019 0.504H211.707L219.339 25.704H216.099L214.263 19.44ZM208.647 1.8L204.291 16.632H213.435L209.079 1.8H208.647Z" fill="white"/>
<path d="M235.838 24.408H236.27V0.504H239.294V25.704H233.246L225.974 1.8H225.542V25.704H222.518V0.504H228.566L235.838 24.408Z" fill="white"/>
</svg>
